<svg xmlns="http://www.w3.org/2000/svg" viewBox="0 0 125 125"><defs><style>.cls-3{fill:#007bbd}</style></defs><g id="Layer_8" data-name="Layer 8"><path d="M95.625 51.966h13.415a4.085 4.085 0 0 1 4.085 4.086v42.896a4.085 4.085 0 0 1-4.085 4.086H33.46a4.085 4.085 0 0 1-4.085-4.086V73.034" style="stroke:#045699;fill:none;stroke-miterlimit:10;stroke-width:6px"/><rect x="11.875" y="21.966" width="83.75" height="51.067" rx="4.085" style="stroke:#2699d6;fill:none;stroke-miterlimit:10;stroke-width:6px"/><path class="cls-3" d="M47.324 51.709h3.516l-.901 5.12h-3.516l-1.208 6.921h-6.196l1.208-6.921h-12.7l.44-4.329 16.325-20.742h6.482Zm-12.92-.044 6.724.044 2.175-11.382-.571.791ZM65.078 50.984l-4.219 3.911-1.538 8.855h-6.438l5.56-31.992h6.437l-2.46 14.106 3.273-3.691 9.624-10.415h8.394L69.89 46.304 78.13 63.75H70.79Z"/></g></svg>