<svg xmlns="http://www.w3.org/2000/svg" viewBox="0 0 125 125"><defs><style>.cls-1{fill:none;stroke-linecap:round;stroke-linejoin:round;stroke-width:6px;stroke:#2699d6}</style></defs><g id="Layer_8" data-name="Layer 8"><path class="cls-1" d="M62.501 20.846A41.662 41.662 0 0 0 22.943 49.48M104.168 62.513a41.661 41.661 0 0 0-28.634-39.559M62.501 104.18a41.662 41.662 0 0 0 39.558-28.635M20.835 62.513A41.662 41.662 0 0 0 49.47 102.07"/><path class="cls-1" d="m70.927 111.247-8.426-7.068 7.068-8.426M13.764 70.937l7.071-8.424 8.424 7.07M54.075 13.753l8.426 7.068-7.068 8.426M111.236 54.086l-7.068 8.427-8.426-7.068"/><path transform="rotate(45 62.501 62.513)" style="stroke:#045699;fill:none;stroke-linecap:round;stroke-linejoin:round;stroke-width:6px" d="M50.757 45.614h23.488v33.798H50.757z"/></g></svg>