<svg width="419" height="199" viewBox="0 0 419 199" fill="none" xmlns="http://www.w3.org/2000/svg">
<path d="M187 62H253" stroke="#D1D1D1" stroke-width="4" stroke-linecap="round"/>
<path d="M185 91H328M185 123H328" stroke="#D1D1D1" stroke-width="4" stroke-linecap="round"/>
<path d="M128.768 31H51.9212C50.3842 31 50 32.7077 50 33.5616V61.9791L52.5616 63.6601V89.2759L50 91.197V161H146.7V82.8719L143.498 79.67V72.6256L146.7 71.3448V47.6502L128.768 31Z" stroke="#D1D1D1" stroke-width="4" stroke-linecap="round"/>
<path d="M120 117H76.6667C76.2246 117 75.8007 117.176 75.4882 117.488C75.1756 117.801 75 118.225 75 118.667C75 119.109 75.1756 119.533 75.4882 119.845C75.8007 120.158 76.2246 120.333 76.6667 120.333H120C120.442 120.333 120.866 120.158 121.179 119.845C121.491 119.533 121.667 119.109 121.667 118.667C121.667 118.225 121.491 117.801 121.179 117.488C120.866 117.176 120.442 117 120 117Z" fill="#C8003F"/>
<path d="M98.3334 114.467L116.017 96.7833C116.29 96.4645 116.432 96.0544 116.416 95.6349C116.4 95.2155 116.226 94.8176 115.929 94.5207C115.633 94.2239 115.235 94.05 114.815 94.0338C114.396 94.0176 113.986 94.1603 113.667 94.4333L100 108.083V73.6667C100 73.2246 99.8245 72.8007 99.5119 72.4882C99.1994 72.1756 98.7754 72 98.3334 72C97.8914 72 97.4675 72.1756 97.1549 72.4882C96.8423 72.8007 96.6667 73.2246 96.6667 73.6667V108.083L83.0167 94.4333C82.8673 94.2589 82.6835 94.1172 82.4767 94.0171C82.2699 93.9171 82.0447 93.8609 81.8152 93.852C81.5856 93.8431 81.3567 93.8818 81.1429 93.9656C80.929 94.0494 80.7347 94.1765 80.5723 94.3389C80.4099 94.5013 80.2828 94.6956 80.199 94.9095C80.1152 95.1233 80.0765 95.3522 80.0854 95.5818C80.0943 95.8113 80.1505 96.0365 80.2505 96.2433C80.3506 96.4501 80.4923 96.6339 80.6667 96.7833L98.3334 114.467Z" fill="#C8003F"/>
<rect x="2" y="2" width="415" height="195" rx="4" stroke="#D1D1D1" stroke-width="4" stroke-linecap="round"/>
</svg>
